<svg width="554" height="213" viewBox="0 0 554 213" fill="none" xmlns="http://www.w3.org/2000/svg">
<g clip-path="url(#clip0_9_2)">
<path d="M131.502 0C109.867 0 89.118 8.59136 73.8198 23.8841L23.8927 73.7931C8.59446 89.0858 0 109.827 0 131.454C0 176.491 36.5224 213 81.5751 213C103.21 213 123.959 204.408 139.257 189.116L173.792 154.593C173.793 154.594 173.792 154.593 173.792 154.593L274.415 54.0069C281.721 46.7032 291.631 42.6 301.963 42.6C319.262 42.6 333.928 53.8706 339.013 69.4669L370.769 37.722C356.282 15.0402 330.88 0 301.963 0C280.328 0 259.58 8.59136 244.281 23.8841L109.124 158.993C101.817 166.297 91.9079 170.4 81.5751 170.4C60.0581 170.4 42.6154 152.964 42.6154 131.454C42.6154 121.125 46.72 111.219 54.0264 103.916L103.953 54.0069C111.26 46.7032 121.169 42.6 131.502 42.6C148.802 42.6 163.467 53.8711 168.552 69.4679L200.309 37.7228C185.822 15.0406 160.419 0 131.502 0Z" fill="#1066BC"/>
<path d="M279.585 158.993C272.279 166.297 262.369 170.4 252.037 170.4C234.74 170.4 220.075 159.132 214.989 143.539L183.233 175.283C197.721 197.961 223.122 213 252.037 213C273.672 213 294.42 204.408 309.719 189.116L444.876 54.0069C452.183 46.7032 462.092 42.6 472.425 42.6C493.942 42.6 511.385 60.0365 511.385 81.5456C511.385 91.8747 507.28 101.781 499.974 109.084L450.047 158.993C442.74 166.297 432.831 170.4 422.498 170.4C405.2 170.4 390.535 159.13 385.449 143.535L353.694 175.28C368.181 197.961 393.582 213 422.498 213C444.133 213 464.882 204.408 480.18 189.116L530.107 139.207C545.405 123.914 554 103.173 554 81.5456C554 36.5092 517.478 0 472.425 0C450.79 0 430.041 8.59136 414.743 23.8841L279.585 158.993Z" fill="#1066BC"/>
</g>
<defs>
<clipPath id="clip0_9_2">
<rect width="554" height="213" fill="white"/>
</clipPath>
</defs>
</svg>
